<svg xml:space="preserve" width="494.4" height="210" xmlns="http://www.w3.org/2000/svg"><g transform="matrix(.19068 0 0 -.19068 -110.55 287.804)"><path d="m587.918 899.188 612.682 586.739 165.17-1025.001z" style="fill:#231f20;fill-opacity:1;fill-rule:nonzero;stroke:none"/><path d="M872.449 695.739 686.953 519.375l-50 308.082zM1352.37 1422.087l-89.9-85.48-24.23 149.32z" style="fill:#3178c6;fill-opacity:1;fill-rule:nonzero;stroke:none"/><path d="M820.652 1147.957h87.453v-391.82h-87.453v391.82" style="fill:#fff;fill-opacity:1;fill-rule:nonzero;stroke:none"/><path d="M1423.75 971.016c10.87 9.731 16.3 25.18 16.3 46.344 0 21.147-5.63 35.667-16.86 43.537-11.24 7.87-30.9 11.79-58.98 11.79h-96.72l18.83-116.284h76.2c29.96 0 50.37 4.871 61.23 14.613zm105.61 46.613c0-62.902-24.91-103.543-74.71-121.89l99.43-140.442h-107.86l-87.08 125.262h-60.66V755.297h-87.63v392.66h148.87c61.02 0 104.57-10.3 130.6-30.89s39.04-53.74 39.04-99.438M1915.87 953.879c0 35.008-11.25 64.883-33.72 89.598-22.47 24.71-50.09 37.07-82.86 37.07-32.78 0-60.39-12.36-82.86-37.07-22.47-24.715-33.7-54.59-33.7-89.598 0-35.023 11.23-64.8 33.7-89.324 22.47-24.539 50.08-36.797 82.86-36.797 32.77 0 60.39 12.258 82.86 36.797 22.47 24.524 33.72 54.301 33.72 89.324zm29.76-144.382c-39.7-38.758-88.58-58.141-146.61-58.141-58.06 0-106.94 19.383-146.63 58.141-39.7 38.769-59.54 86.992-59.54 144.66 0 57.679 19.84 105.9 59.54 144.66 39.69 38.77 88.57 58.14 146.63 58.14 58.03 0 106.91-19.37 146.61-58.14 39.7-38.76 59.55-86.981 59.55-144.66 0-57.668-19.85-105.891-59.55-144.66M2259.67 832.817c43.05 0 78.27 17.039 105.61 51.121l56.17-57.859c-44.58-50.192-97.1-75.282-157.56-75.282-60.5 0-110.32 19.102-149.45 57.301-39.13 38.207-58.7 86.41-58.7 144.656 0 58.239 19.93 106.823 59.82 145.783 39.89 38.95 88.67 58.42 146.35 58.42 64.42 0 118.34-24.53 161.78-73.59l-54.48-61.8c-27.72 34.46-62.17 51.69-103.37 51.69-32.96 0-61.15-10.78-84.54-32.31-23.42-21.532-35.12-50.548-35.12-87.068 0-36.511 11.05-65.832 33.15-87.922 22.09-22.101 48.88-33.14 80.34-33.14M2490.55 1147.957h87.63V986.739l148.3 161.218h108.43l-156.17-173.578c13.48-18.73 38.38-53.64 74.71-104.773 36.32-51.117 63.47-89.231 81.46-114.309h-102.25l-115.15 155.039-39.33-43.82V755.297h-87.63v392.66M2970.57 1069.597c-8.42-6.92-12.64-16.1-12.64-27.52 0-11.43 5.14-20.51 15.46-27.248 10.29-6.739 34.07-14.7 71.34-23.872 37.26-9.191 66.2-22.949 86.79-41.292 20.59-18.352 30.91-45.137 30.91-80.329 0-35.211-13.2-63.769-39.61-85.679-26.41-21.899-61.15-32.86-104.22-32.86-62.17 0-118.16 23.032-167.96 69.11l52.24 64.031c42.32-37.07 81.45-55.609 117.41-55.609 16.1 0 28.73 3.449 37.92 10.378 9.17 6.93 13.76 16.29 13.76 28.09 0 11.809-4.87 21.16-14.6 28.102-9.74 6.918-29.03 13.949-57.86 21.058-45.7 10.856-79.13 24.997-100.28 42.418-21.17 17.407-31.74 44.75-31.74 82.012 0 37.27 13.39 66.02 40.16 86.24 26.77 20.23 60.2 30.33 100.29 30.33 26.21 0 52.42-4.5 78.64-13.48 26.21-8.98 49.06-21.72 68.54-38.21l-44.39-64.03c-34.07 25.84-69.29 38.76-105.59 38.76-14.62 0-26.14-3.47-34.57-10.4" style="fill:#231f20;fill-opacity:1;fill-rule:nonzero;stroke:none"/><path d="M1144.93 1072.287v-316.15h-87.45v316.15H946.492v75.67h309.438l11.56-75.67h-122.56M1265.29 789.278c0-21.25-17.23-38.481-38.48-38.481-21.25 0-38.47 17.231-38.47 38.481s17.22 38.48 38.47 38.48 38.48-17.23 38.48-38.48M1021.34 789.278c0-21.25-17.23-38.481-38.48-38.481-21.25 0-38.47 17.231-38.47 38.481s17.22 38.48 38.47 38.48 38.48-17.23 38.48-38.48" style="fill:#fff;fill-opacity:1;fill-rule:nonzero;stroke:none"/><rect fill="#3178c6" height="256.851" rx="25.083" width="256.851" x="1366.898" y="-678.627" transform="scale(1 -1)" style="stroke-width:5.24424"/><rect fill="#3178c6" height="256.851" rx="25.083" width="256.851" x="1366.898" y="-678.627" transform="scale(1 -1)" style="stroke-width:5.24424"/><path clip-rule="evenodd" d="M1525.895 474.237v-25.114c4.082-2.093 8.91-3.662 14.485-4.708 5.575-1.047 11.45-1.57 17.626-1.57 6.02 0 11.737.576 17.155 1.727 5.417 1.15 10.168 3.048 14.25 5.69 4.083 2.642 7.315 6.095 9.696 10.36 2.382 4.263 3.573 9.534 3.573 15.812 0 4.553-.68 8.542-2.042 11.969a27.974 27.974 0 0 1-5.888 9.143c-2.565 2.668-5.64 5.062-9.225 7.18-3.586 2.12-7.63 4.12-12.13 6.004-3.298 1.36-6.255 2.682-8.872 3.963-2.618 1.283-4.842 2.59-6.674 3.924-1.832 1.335-3.245 2.747-4.24 4.238-.994 1.492-1.492 3.179-1.492 5.063 0 1.726.445 3.282 1.335 4.67.89 1.386 2.146 2.576 3.769 3.57 1.623.994 3.611 1.766 5.967 2.315 2.355.55 4.972.824 7.851.824 2.093 0 4.305-.157 6.634-.47a52.504 52.504 0 0 0 7.027-1.453 48.912 48.912 0 0 0 6.87-2.472 37.858 37.858 0 0 0 6.163-3.453v23.466c-3.82 1.465-7.995 2.55-12.522 3.256-4.528.707-9.723 1.06-15.585 1.06-5.967 0-11.62-.641-16.959-1.923s-10.036-3.283-14.093-6.003c-4.056-2.721-7.262-6.187-9.617-10.4-2.356-4.21-3.534-9.246-3.534-15.106 0-7.482 2.16-13.865 6.478-19.15 4.318-5.284 10.873-9.757 19.667-13.42a265.639 265.639 0 0 0 9.657-4.16c2.983-1.36 5.561-2.772 7.733-4.237 2.172-1.465 3.887-3.06 5.143-4.788 1.256-1.726 1.884-3.688 1.884-5.886a9.006 9.006 0 0 0-1.177-4.512c-.786-1.387-1.977-2.59-3.573-3.61-1.596-1.02-3.585-1.818-5.967-2.393-2.382-.576-5.168-.864-8.361-.864-5.444 0-10.835.955-16.174 2.865-5.339 1.91-10.285 4.774-14.839 8.593zm-42.22 61.876h32.217v20.61h-89.798v-20.61h32.06V444.35h25.521z" fill="#fff" fill-rule="evenodd" style="stroke-width:5.24424"/></g></svg>